<?xml version="1.0" encoding="UTF-8"?><svg id="Layer_1" xmlns="http://www.w3.org/2000/svg" xmlns:xlink="http://www.w3.org/1999/xlink" viewBox="0 0 25.08 25.08"><defs><style>.cls-1,.cls-2,.cls-3{fill:none;}.cls-2{stroke-linecap:round;stroke-linejoin:round;stroke-width:1.25px;}.cls-2,.cls-3{stroke:#000;}.cls-3{stroke-miterlimit:10;}.cls-4{clip-path:url(#clippath);}</style><clipPath id="clippath"><rect class="cls-3" x=".54" y=".54" width="24" height="24"/></clipPath></defs><g class="cls-4"><rect class="cls-1" x=".62" y=".62" width="11.92" height="11.92"/><rect class="cls-1" x="12.54" y=".62" width="3.64" height="3.64"/><rect class="cls-1" x="21.48" y=".62" width="2.98" height="2.98"/><rect class="cls-1" x="16.18" y="6.09" width="5.3" height="2.98"/><rect class="cls-1" x="16.18" y="9.07" width="8.28" height="8.28"/><rect class="cls-1" x="7.74" y="12.54" width="8.44" height="8.44"/><rect class="cls-1" x="21.48" y="17.34" width="2.98" height="7.12"/><rect class="cls-1" x=".62" y="20.98" width="3.64" height="3.48"/><rect class="cls-2" x=".62" y=".62" width="23.83" height="23.83"/><rect class="cls-2" x=".62" y=".62" width="11.92" height="11.92"/><rect class="cls-2" x="12.54" y=".62" width="3.64" height="3.64"/><rect class="cls-2" x="16.18" y=".62" width="5.3" height="5.46"/><rect class="cls-2" x="21.48" y=".62" width="2.98" height="2.98"/><rect class="cls-2" x="12.54" y="4.27" width="3.64" height="8.28"/><rect class="cls-2" x="21.48" y="3.6" width="2.98" height="5.46"/><rect class="cls-2" x="16.18" y="6.09" width="5.3" height="2.98"/><rect class="cls-2" x="16.18" y="9.07" width="8.28" height="8.28"/><rect class="cls-2" x="7.74" y="12.54" width="8.44" height="8.44"/><rect class="cls-2" x=".62" y="12.54" width="7.12" height="8.44"/><rect class="cls-2" x="16.18" y="17.34" width="5.3" height="7.12"/><rect class="cls-2" x="21.48" y="17.34" width="2.98" height="7.12"/><rect class="cls-2" x=".62" y="20.98" width="3.64" height="3.48"/></g><rect class="cls-3" x=".54" y=".54" width="24" height="24"/></svg>