<?xml version="1.0" encoding="UTF-8" standalone="no"?>
<svg
   id="Layer_1"
   viewBox="0 0 148 148"
   version="1.1"
   xmlns="http://www.w3.org/2000/svg"
   xmlns:svg="http://www.w3.org/2000/svg">
  <defs
     id="defs1">
    <style
       id="style1">.cls-1,.cls-2,.cls-3{fill:none;}.cls-2{stroke-linecap:round;stroke-linejoin:round;stroke-width:4px;}.cls-2,.cls-3{stroke:#000;}.cls-4{clip-path:url(#clippath);}.cls-3{stroke-miterlimit:10;stroke-width:3px;}</style>
    <clipPath
       id="clippath">
      <rect
         class="cls-3"
         x="1.5"
         y="1.5"
         width="145"
         height="145"
         id="rect1" />
    </clipPath>
  </defs>
  <g
     class="cls-4"
     clip-path="url(#clippath)"
     id="g23"
     transform="translate(1.1384088)">
    <rect
       class="cls-2"
       x="2"
       y="2"
       width="144"
       height="144"
       id="rect2" />
    <rect
       class="cls-1"
       x="2"
       y="2"
       width="72"
       height="72"
       id="rect3" />
    <rect
       class="cls-2"
       x="2"
       y="2"
       width="72"
       height="72"
       id="rect4" />
    <rect
       class="cls-1"
       x="74"
       y="2"
       width="22"
       height="22"
       id="rect5" />
    <rect
       class="cls-2"
       x="74"
       y="2"
       width="22"
       height="22"
       id="rect6" />
    <rect
       class="cls-2"
       x="96"
       y="2"
       width="32"
       height="33"
       id="rect7" />
    <rect
       class="cls-1"
       x="128"
       y="2"
       width="18"
       height="18"
       id="rect8" />
    <rect
       class="cls-2"
       x="128"
       y="2"
       width="18"
       height="18"
       id="rect9" />
    <rect
       class="cls-2"
       x="74"
       y="24"
       width="22"
       height="50"
       id="rect10" />
    <rect
       class="cls-2"
       x="128"
       y="20"
       width="18"
       height="33"
       id="rect11" />
    <rect
       class="cls-1"
       x="96"
       y="35"
       width="32"
       height="18"
       id="rect12" />
    <rect
       class="cls-2"
       x="96"
       y="35"
       width="32"
       height="18"
       id="rect13" />
    <rect
       class="cls-1"
       x="96"
       y="53"
       width="50"
       height="50"
       id="rect14" />
    <rect
       class="cls-2"
       x="96"
       y="53"
       width="50"
       height="50"
       id="rect15" />
    <rect
       class="cls-1"
       x="45"
       y="74"
       width="51"
       height="51"
       id="rect16" />
    <rect
       class="cls-2"
       x="45"
       y="74"
       width="51"
       height="51"
       id="rect17" />
    <rect
       class="cls-2"
       x="2"
       y="74"
       width="43"
       height="51"
       id="rect18" />
    <rect
       class="cls-2"
       x="96"
       y="103"
       width="32"
       height="43"
       id="rect19" />
    <rect
       class="cls-1"
       x="128"
       y="103"
       width="18"
       height="43"
       id="rect20" />
    <rect
       class="cls-2"
       x="128"
       y="103"
       width="18"
       height="43"
       id="rect21" />
    <rect
       class="cls-1"
       x="2"
       y="125"
       width="22"
       height="21"
       id="rect22" />
    <rect
       class="cls-2"
       x="2"
       y="125"
       width="22"
       height="21"
       id="rect23" />
  </g>
  <rect
     class="cls-3"
     x="4.2432432"
     y="2.2432432"
     width="23.513514"
     height="23.513514"
     id="rect24" />
</svg>
